<svg width="1319" height="1411" viewBox="0 0 1319 1411" fill="none" xmlns="http://www.w3.org/2000/svg">
<path d="M759.639 406.312C760.599 406.315 761.559 406.319 762.548 406.322C798.534 406.458 834.557 410.354 868.682 422.418C871.935 423.556 875.206 424.537 878.514 425.5C884.434 427.296 890.023 429.628 895.678 432.125C898.438 433.337 901.205 434.472 904.014 435.562C910.112 437.965 916.023 440.775 921.952 443.562C921.973 442.458 921.973 442.458 921.995 441.332C922.229 436.544 922.412 433.387 925.077 429.312C927.952 427.562 927.952 427.562 931.577 427.562C934.88 428.541 935.966 428.892 937.952 431.562C938.051 433.624 938.051 433.624 937.725 435.992C937.24 441.704 936.886 447.117 938.952 452.562C943.804 458.007 950.819 460.954 957.253 464.148C961.102 466.165 964.508 468.614 967.952 471.25C968.548 471.698 969.144 472.146 969.758 472.607C970.924 473.487 972.086 474.37 973.246 475.258C974.959 476.568 976.682 477.861 978.409 479.152C984.323 483.603 990.001 488.233 995.44 493.262C997.452 495.104 999.491 496.884 1001.56 498.66C1006.39 502.873 1010.93 507.356 1015.46 511.886C1016.88 513.302 1018.3 514.709 1019.73 516.117C1025.91 522.288 1031.51 528.738 1036.95 535.562C1038.53 537.398 1040.11 539.232 1041.7 541.062C1048.42 549.12 1054.17 557.822 1059.95 566.562C1060.45 567.303 1060.95 568.044 1061.46 568.807C1076.65 591.49 1088.38 616.043 1097.95 641.562C1098.25 642.36 1098.56 643.159 1098.87 643.981C1106.02 663.177 1111.18 683.773 1114.33 704C1114.47 704.918 1114.61 705.837 1114.76 706.783C1117.52 726.303 1118.36 745.932 1118.33 765.625C1118.33 766.73 1118.33 767.836 1118.33 768.975C1118.29 787.169 1117.24 804.645 1113.95 822.562C1113.77 823.601 1113.59 824.64 1113.4 825.711C1108.88 851.128 1101.67 876.544 1091.04 900.1C1089.83 902.839 1088.7 905.606 1087.58 908.379C1085 914.584 1082.06 920.547 1078.95 926.5C1078.39 927.576 1077.83 928.652 1077.25 929.761C1064.6 953.667 1049.34 976.389 1031.01 996.324C1028.5 999.059 1026.08 1001.87 1023.66 1004.69C1021.32 1007.25 1018.76 1009.55 1016.14 1011.82C1014.75 1013.52 1014.75 1013.52 1014.89 1015.82C1016.44 1019.83 1019.08 1022.54 1021.95 1025.69C1023.15 1027.03 1024.35 1028.38 1025.54 1029.72C1026.13 1030.38 1026.71 1031.04 1027.32 1031.71C1029.45 1034.13 1031.49 1036.62 1033.51 1039.12C1036.94 1043.36 1040.46 1047.5 1044.01 1051.62C1048.8 1057.17 1053.44 1062.8 1057.95 1068.56C1062.7 1066.62 1066.25 1062.94 1070 1059.55C1075.38 1054.84 1080.48 1053.05 1087.65 1053.25C1098.53 1054.71 1105.05 1064.55 1111.43 1072.47C1114.22 1075.89 1117.07 1079.23 1119.95 1082.56C1124.25 1087.55 1128.46 1092.6 1132.61 1097.72C1135.34 1101.04 1138.14 1104.3 1140.95 1107.56C1145.27 1112.58 1149.51 1117.65 1153.68 1122.79C1158.04 1128.11 1162.5 1133.33 1166.95 1138.56C1172.14 1144.67 1177.33 1150.78 1182.39 1157C1186.35 1161.86 1190.42 1166.62 1194.51 1171.37C1198.29 1175.76 1201.96 1180.22 1205.61 1184.72C1208.34 1188.04 1211.14 1191.3 1213.95 1194.56C1218.27 1199.58 1222.51 1204.65 1226.68 1209.79C1231.04 1215.11 1235.5 1220.33 1239.95 1225.56C1245.91 1232.58 1251.83 1239.62 1257.65 1246.76C1262.02 1252.08 1266.49 1257.32 1270.95 1262.56C1276.89 1269.55 1282.79 1276.57 1288.57 1283.69C1290.81 1286.39 1293.1 1289.05 1295.4 1291.71C1310.03 1308.59 1319.33 1321.99 1318.19 1345.02C1317.65 1350.72 1315.67 1355.53 1312.95 1360.56C1312.54 1361.35 1312.13 1362.15 1311.71 1362.96C1305.87 1372.83 1295.62 1380.16 1286.8 1387.24C1284.74 1388.92 1282.73 1390.61 1280.73 1392.36C1266.93 1404.36 1253.99 1411.68 1235.23 1410.95C1229.64 1410.56 1224.93 1409.12 1219.95 1406.56C1219.1 1406.14 1218.26 1405.71 1217.38 1405.28C1207.76 1400 1201.11 1391.97 1194.33 1383.52C1191.76 1380.32 1189.11 1377.19 1186.45 1374.06C1183.1 1370.12 1179.78 1366.15 1176.51 1362.12C1172.56 1357.26 1168.49 1352.5 1164.39 1347.75C1160.62 1343.36 1156.94 1338.9 1153.3 1334.41C1150.56 1331.09 1147.76 1327.82 1144.95 1324.56C1140.65 1319.57 1136.45 1314.52 1132.3 1309.41C1129.56 1306.09 1126.76 1302.82 1123.95 1299.56C1119.65 1294.57 1115.45 1289.52 1111.3 1284.41C1108.56 1281.09 1105.76 1277.82 1102.95 1274.56C1098.65 1269.57 1094.45 1264.52 1090.3 1259.41C1087.56 1256.09 1084.76 1252.82 1081.95 1249.56C1077.65 1244.57 1073.45 1239.52 1069.3 1234.41C1066.56 1231.09 1063.76 1227.82 1060.95 1224.56C1056.63 1219.55 1052.4 1214.47 1048.22 1209.33C1043.87 1204.02 1039.4 1198.8 1034.95 1193.56C1029.76 1187.45 1024.57 1181.35 1019.51 1175.12C1016.04 1170.85 1012.48 1166.67 1008.89 1162.5C1005.33 1158.36 1001.79 1154.22 998.327 1150C997.716 1149.26 997.105 1148.51 996.475 1147.75C992.305 1141.77 992.092 1135.64 992.952 1128.56C995.914 1119.93 1004.86 1113.75 1011.95 1108.56C1010.59 1104.52 1008.81 1102.02 1005.89 1098.94C1002.69 1095.48 999.603 1091.98 996.639 1088.31C993.147 1084 989.576 1079.77 985.952 1075.56C982.211 1071.21 978.489 1066.85 974.827 1062.44C974.123 1061.59 973.419 1060.74 972.694 1059.87C971.145 1057.82 969.997 1055.9 968.952 1053.56C967.948 1054.19 966.943 1054.82 965.909 1055.47C963.038 1057.27 960.166 1059.06 957.292 1060.85C954.777 1062.42 952.269 1064 949.768 1065.59C933.864 1075.6 917.298 1084.34 899.952 1091.56C899.016 1091.96 899.016 1091.96 898.062 1092.36C872.694 1103.12 846.121 1110.21 818.952 1114.56C818.052 1114.71 817.151 1114.85 816.224 1115C813.531 1115.43 810.836 1115.85 808.139 1116.25C807.365 1116.37 806.591 1116.49 805.793 1116.61C791.578 1118.64 777.197 1118.73 762.866 1118.69C760.19 1118.69 757.514 1118.69 754.838 1118.7C745.497 1118.7 736.255 1118.51 726.952 1117.56C725.845 1117.45 725.845 1117.45 724.716 1117.34C714.7 1116.28 704.815 1114.58 694.952 1112.56C693.63 1112.29 693.63 1112.29 692.281 1112.02C679.647 1109.43 667.221 1106.54 654.952 1102.56C654.016 1102.26 653.079 1101.97 652.115 1101.66C635.11 1096.19 618.971 1089.45 602.952 1081.56C601.74 1080.97 601.74 1080.97 600.504 1080.36C571.161 1065.77 571.161 1065.77 563.952 1058.56C562.584 1058.45 561.211 1058.41 559.838 1058.39C559.002 1058.36 558.167 1058.34 557.305 1058.31C555.54 1058.27 553.774 1058.24 552.008 1058.22C545.584 1058.01 545.584 1058.01 542.366 1055.74C540.325 1052.6 540.624 1050.23 540.952 1046.56C541.265 1045.22 541.594 1043.89 541.952 1042.56C541.106 1041.85 540.26 1041.14 539.389 1040.4C538.243 1039.43 537.098 1038.47 535.952 1037.5C535.399 1037.03 534.846 1036.57 534.276 1036.09C532.497 1034.58 530.724 1033.07 528.952 1031.56C528.077 1030.83 528.077 1030.83 527.184 1030.08C521.076 1024.86 515.41 1019.21 509.734 1013.53C508.026 1011.82 506.311 1010.13 504.594 1008.43C497.927 1001.8 491.764 994.972 485.952 987.562C484.815 986.161 483.677 984.759 482.538 983.359C460.178 955.37 441.252 923.078 429.268 889.23C428.246 886.384 427.158 883.61 426.006 880.816C423.829 875.408 422.125 869.913 420.514 864.312C420.213 863.269 419.913 862.225 419.603 861.15C412.213 835.094 406.811 808.24 406.784 781.082C406.78 779.911 406.777 778.741 406.774 777.535C406.769 775.065 406.766 772.595 406.766 770.125C406.764 766.43 406.746 762.736 406.727 759.041C406.678 738.939 407.5 718.975 411.264 699.187C411.59 697.424 411.59 697.424 411.923 695.625C413.591 686.862 415.689 678.322 418.288 669.793C419.015 667.349 419.688 664.894 420.354 662.433C423.521 650.811 427.332 639.682 431.952 628.562C432.452 627.333 432.452 627.333 432.963 626.079C447.423 590.627 467.544 558.208 492.952 529.562C494.161 528.167 495.369 526.771 496.577 525.375C497.699 524.102 498.825 522.831 499.952 521.562C500.732 520.678 501.512 519.794 502.315 518.883C506.646 514.033 510.989 509.478 515.967 505.297C518.183 503.36 520.213 501.297 522.264 499.187C527.179 494.231 532.463 489.863 537.952 485.562C538.565 485.077 539.179 484.593 539.812 484.093C567.741 462.092 598.704 443.347 631.952 430.562C632.919 430.19 633.886 429.817 634.882 429.433C648.72 424.158 662.506 419.805 676.952 416.562C678.151 416.279 679.349 415.995 680.585 415.703C683.702 414.967 686.825 414.259 689.952 413.562C691.077 413.306 692.202 413.049 693.362 412.785C715.22 407.92 737.288 406.183 759.639 406.312Z" fill="#FEFEFE"/>
<path d="M759.639 406.312C760.599 406.315 761.559 406.319 762.548 406.322C798.534 406.458 834.557 410.354 868.682 422.418C871.935 423.556 875.206 424.537 878.514 425.5C884.434 427.296 890.023 429.628 895.678 432.125C898.438 433.337 901.205 434.472 904.014 435.562C910.112 437.965 916.023 440.775 921.952 443.562C921.973 442.458 921.973 442.458 921.995 441.332C922.229 436.544 922.412 433.387 925.077 429.312C927.952 427.562 927.952 427.562 931.577 427.562C934.88 428.541 935.966 428.892 937.952 431.562C938.051 433.624 938.051 433.624 937.725 435.992C937.24 441.704 936.886 447.117 938.952 452.562C943.804 458.007 950.819 460.954 957.253 464.148C961.102 466.165 964.508 468.614 967.952 471.25C968.548 471.698 969.144 472.146 969.758 472.607C970.924 473.487 972.086 474.37 973.246 475.258C974.959 476.568 976.682 477.861 978.409 479.152C984.323 483.603 990.001 488.233 995.44 493.262C997.452 495.104 999.491 496.884 1001.56 498.66C1006.39 502.873 1010.93 507.356 1015.46 511.886C1016.88 513.302 1018.3 514.709 1019.73 516.117C1025.91 522.288 1031.51 528.738 1036.95 535.562C1038.53 537.398 1040.11 539.232 1041.7 541.062C1048.42 549.12 1054.17 557.822 1059.95 566.562C1060.45 567.303 1060.95 568.044 1061.46 568.807C1076.65 591.49 1088.38 616.043 1097.95 641.562C1098.25 642.36 1098.56 643.159 1098.87 643.981C1106.02 663.177 1111.18 683.773 1114.33 704C1114.47 704.918 1114.61 705.837 1114.76 706.783C1117.52 726.303 1118.36 745.932 1118.33 765.625C1118.33 766.73 1118.33 767.836 1118.33 768.975C1118.29 787.169 1117.24 804.645 1113.95 822.562C1113.77 823.601 1113.59 824.64 1113.4 825.711C1108.88 851.128 1101.67 876.544 1091.04 900.1C1089.83 902.839 1088.7 905.606 1087.58 908.379C1085 914.584 1082.06 920.547 1078.95 926.5C1078.39 927.576 1077.83 928.652 1077.25 929.761C1064.6 953.667 1049.34 976.389 1031.01 996.324C1028.5 999.059 1026.08 1001.87 1023.66 1004.69C1021.32 1007.25 1018.76 1009.55 1016.14 1011.82C1014.75 1013.52 1014.75 1013.52 1014.89 1015.82C1016.44 1019.83 1019.08 1022.54 1021.95 1025.69C1023.15 1027.03 1024.35 1028.38 1025.54 1029.72C1026.13 1030.38 1026.71 1031.04 1027.32 1031.71C1029.45 1034.13 1031.49 1036.62 1033.51 1039.12C1036.94 1043.36 1040.46 1047.5 1044.01 1051.62C1048.8 1057.17 1053.44 1062.8 1057.95 1068.56C1062.7 1066.62 1066.25 1062.94 1070 1059.55C1075.38 1054.84 1080.48 1053.05 1087.65 1053.25C1098.53 1054.71 1105.05 1064.55 1111.43 1072.47C1114.22 1075.89 1117.07 1079.23 1119.95 1082.56C1124.25 1087.55 1128.46 1092.6 1132.61 1097.72C1135.34 1101.04 1138.14 1104.3 1140.95 1107.56C1145.27 1112.58 1149.51 1117.65 1153.68 1122.79C1158.04 1128.11 1162.5 1133.33 1166.95 1138.56C1172.14 1144.67 1177.33 1150.78 1182.39 1157C1186.35 1161.86 1190.42 1166.62 1194.51 1171.37C1198.29 1175.76 1201.96 1180.22 1205.61 1184.72C1208.34 1188.04 1211.14 1191.3 1213.95 1194.56C1218.27 1199.58 1222.51 1204.65 1226.68 1209.79C1231.04 1215.11 1235.5 1220.33 1239.95 1225.56C1245.91 1232.58 1251.83 1239.62 1257.65 1246.76C1262.02 1252.08 1266.49 1257.32 1270.95 1262.56C1276.89 1269.55 1282.79 1276.57 1288.57 1283.69C1290.81 1286.39 1293.1 1289.05 1295.4 1291.71C1310.03 1308.59 1319.33 1321.99 1318.19 1345.02C1317.65 1350.72 1315.67 1355.53 1312.95 1360.56C1312.54 1361.35 1312.13 1362.15 1311.71 1362.96C1305.87 1372.83 1295.62 1380.16 1286.8 1387.24C1284.74 1388.92 1282.73 1390.61 1280.73 1392.36C1266.93 1404.36 1253.99 1411.68 1235.23 1410.95C1229.64 1410.56 1224.93 1409.12 1219.95 1406.56C1219.1 1406.14 1218.26 1405.71 1217.38 1405.28C1207.76 1400 1201.11 1391.97 1194.33 1383.52C1191.76 1380.32 1189.11 1377.19 1186.45 1374.06C1183.1 1370.12 1179.78 1366.15 1176.51 1362.12C1172.56 1357.26 1168.49 1352.5 1164.39 1347.75C1160.62 1343.36 1156.94 1338.9 1153.3 1334.41C1150.56 1331.09 1147.76 1327.82 1144.95 1324.56C1140.65 1319.57 1136.45 1314.52 1132.3 1309.41C1129.56 1306.09 1126.76 1302.82 1123.95 1299.56C1119.65 1294.57 1115.45 1289.52 1111.3 1284.41C1108.56 1281.09 1105.76 1277.82 1102.95 1274.56C1098.65 1269.57 1094.45 1264.52 1090.3 1259.41C1087.56 1256.09 1084.76 1252.82 1081.95 1249.56C1077.65 1244.57 1073.45 1239.52 1069.3 1234.41C1066.56 1231.09 1063.76 1227.82 1060.95 1224.56C1056.63 1219.55 1052.4 1214.47 1048.22 1209.33C1043.87 1204.02 1039.4 1198.8 1034.95 1193.56C1029.76 1187.45 1024.57 1181.35 1019.51 1175.12C1016.04 1170.85 1012.48 1166.67 1008.89 1162.5C1005.33 1158.36 1001.79 1154.22 998.327 1150C997.716 1149.26 997.105 1148.51 996.475 1147.75C992.305 1141.77 992.092 1135.64 992.952 1128.56C995.914 1119.93 1004.86 1113.75 1011.95 1108.56C1010.59 1104.52 1008.81 1102.02 1005.89 1098.94C1002.69 1095.48 999.603 1091.98 996.639 1088.31C993.147 1084 989.576 1079.77 985.952 1075.56C982.211 1071.21 978.489 1066.85 974.827 1062.44C974.123 1061.59 973.419 1060.74 972.694 1059.87C971.145 1057.82 969.997 1055.9 968.952 1053.56C967.948 1054.19 966.943 1054.82 965.909 1055.47C963.038 1057.27 960.166 1059.06 957.292 1060.85C954.777 1062.42 952.269 1064 949.768 1065.59C933.864 1075.6 917.298 1084.34 899.952 1091.56C899.016 1091.96 899.016 1091.96 898.062 1092.36C872.694 1103.12 846.121 1110.21 818.952 1114.56C818.052 1114.71 817.151 1114.85 816.224 1115C813.531 1115.43 810.836 1115.85 808.139 1116.25C807.365 1116.37 806.591 1116.49 805.793 1116.61C791.578 1118.64 777.197 1118.73 762.866 1118.69C760.19 1118.69 757.514 1118.69 754.838 1118.7C745.497 1118.7 736.255 1118.51 726.952 1117.56C725.845 1117.45 725.845 1117.45 724.716 1117.34C714.7 1116.28 704.815 1114.58 694.952 1112.56C693.63 1112.29 693.63 1112.29 692.281 1112.02C679.647 1109.43 667.221 1106.54 654.952 1102.56C654.016 1102.26 653.079 1101.97 652.115 1101.66C635.11 1096.19 618.971 1089.45 602.952 1081.56C601.74 1080.97 601.74 1080.97 600.504 1080.36C571.161 1065.77 571.161 1065.77 563.952 1058.56C562.584 1058.45 561.211 1058.41 559.838 1058.39C559.002 1058.36 558.167 1058.34 557.305 1058.31C555.54 1058.27 553.774 1058.24 552.008 1058.22C545.584 1058.01 545.584 1058.01 542.366 1055.74C540.325 1052.6 540.624 1050.23 540.952 1046.56C541.265 1045.22 541.594 1043.89 541.952 1042.56C541.106 1041.85 540.26 1041.14 539.389 1040.4C538.243 1039.43 537.098 1038.47 535.952 1037.5C535.399 1037.03 534.846 1036.57 534.276 1036.09C532.497 1034.58 530.724 1033.07 528.952 1031.56C528.077 1030.83 528.077 1030.83 527.184 1030.08C521.076 1024.86 515.41 1019.21 509.734 1013.53C508.026 1011.82 506.311 1010.13 504.594 1008.43C497.927 1001.8 491.764 994.972 485.952 987.562C484.815 986.161 483.677 984.759 482.538 983.359C460.178 955.37 441.252 923.078 429.268 889.23C428.246 886.384 427.158 883.61 426.006 880.816C423.829 875.408 422.125 869.913 420.514 864.312C420.213 863.269 419.913 862.225 419.603 861.15C412.213 835.094 406.811 808.24 406.784 781.082C406.78 779.911 406.777 778.741 406.774 777.535C406.769 775.065 406.766 772.595 406.766 770.125C406.764 766.43 406.746 762.736 406.727 759.041C406.678 738.939 407.5 718.975 411.264 699.187C411.59 697.424 411.59 697.424 411.923 695.625C413.591 686.862 415.689 678.322 418.288 669.793C419.015 667.349 419.688 664.894 420.354 662.433C423.521 650.811 427.332 639.682 431.952 628.562C432.452 627.333 432.452 627.333 432.963 626.079C447.423 590.627 467.544 558.208 492.952 529.562C494.161 528.167 495.369 526.771 496.577 525.375C497.699 524.102 498.825 522.831 499.952 521.562C500.732 520.678 501.512 519.794 502.315 518.883C506.646 514.033 510.989 509.478 515.967 505.297C518.183 503.36 520.213 501.297 522.264 499.187C527.179 494.231 532.463 489.863 537.952 485.562C538.565 485.077 539.179 484.593 539.812 484.093C567.741 462.092 598.704 443.347 631.952 430.562C632.919 430.19 633.886 429.817 634.882 429.433C648.72 424.158 662.506 419.805 676.952 416.562C678.151 416.279 679.349 415.995 680.585 415.703C683.702 414.967 686.825 414.259 689.952 413.562C691.077 413.306 692.202 413.049 693.362 412.785C715.22 407.92 737.288 406.183 759.639 406.312ZM578.323 555.41C576.207 557.331 574.059 559.202 571.889 561.062C564.681 567.355 558.093 574.233 551.952 581.562C551.498 582.097 551.045 582.631 550.577 583.182C537.889 598.181 527.135 614.198 517.952 631.562C517.612 632.203 517.272 632.845 516.922 633.505C501.118 663.593 491.088 695.83 486.952 729.562C486.869 730.196 486.787 730.83 486.702 731.483C485.988 737.306 485.762 743.059 485.713 748.922C485.704 749.896 485.694 750.871 485.684 751.875C485.512 773.414 485.586 794.384 489.952 815.562C490.161 816.58 490.37 817.597 490.585 818.645C498.863 857.373 514.572 893.594 537.952 925.562C538.377 926.145 538.802 926.727 539.24 927.327C544.341 934.251 549.786 940.765 555.643 947.07C557.671 949.259 559.634 951.485 561.577 953.75C567.528 960.58 574.054 966.704 580.952 972.562C581.801 973.301 582.651 974.04 583.526 974.801C596.341 985.762 610.226 995.351 624.952 1003.56C626.184 1004.25 626.184 1004.25 627.442 1004.95C687.306 1038.01 759.224 1049.17 825.952 1032.56C826.794 1032.36 827.637 1032.15 828.505 1031.94C873.29 1020.93 913.73 999.413 947.952 968.562C948.559 968.017 949.167 967.471 949.793 966.909C956.59 960.774 963.097 954.616 968.952 947.562C969.818 946.584 970.684 945.606 971.577 944.598C983.572 931.025 994.154 916.402 1002.95 900.562C1003.64 899.34 1003.64 899.34 1004.34 898.093C1027.39 856.654 1039.46 810.369 1039.26 763C1039.26 761.626 1039.26 761.626 1039.26 760.225C1039.22 745.473 1038.47 731.125 1035.95 716.562C1035.81 715.712 1035.67 714.862 1035.53 713.987C1026.87 662.07 1001.79 608.958 963.549 572.16C961.804 570.415 960.23 568.574 958.639 566.687C916.368 517.992 846.09 490.453 782.987 485.879C707.996 481.456 634.183 504.43 578.323 555.41Z" fill="#EAEDED"/>
<path d="M759.639 406.312C760.599 406.315 761.559 406.319 762.548 406.322C798.534 406.458 834.557 410.354 868.682 422.418C871.935 423.556 875.206 424.537 878.514 425.5C884.434 427.296 890.023 429.628 895.678 432.125C898.438 433.337 901.205 434.472 904.014 435.562C910.112 437.965 916.023 440.775 921.952 443.562C921.973 442.458 921.973 442.458 921.995 441.332C922.229 436.544 922.412 433.387 925.077 429.312C927.952 427.562 927.952 427.562 931.577 427.562C934.88 428.541 935.966 428.892 937.952 431.562C938.051 433.624 938.051 433.624 937.725 435.992C937.24 441.704 936.886 447.117 938.952 452.562C943.804 458.007 950.819 460.954 957.253 464.148C961.102 466.165 964.508 468.614 967.952 471.25C968.548 471.698 969.144 472.146 969.758 472.607C970.924 473.487 972.086 474.37 973.246 475.258C974.959 476.568 976.682 477.861 978.409 479.152C984.323 483.603 990.001 488.233 995.44 493.262C997.452 495.104 999.491 496.884 1001.56 498.66C1006.39 502.873 1010.93 507.356 1015.46 511.886C1016.88 513.302 1018.3 514.709 1019.73 516.117C1025.91 522.288 1031.51 528.738 1036.95 535.562C1038.53 537.398 1040.11 539.232 1041.7 541.062C1048.42 549.12 1054.17 557.822 1059.95 566.562C1060.45 567.303 1060.95 568.044 1061.46 568.807C1076.65 591.49 1088.38 616.043 1097.95 641.562C1098.25 642.36 1098.56 643.159 1098.87 643.981C1106.02 663.177 1111.18 683.773 1114.33 704C1114.47 704.918 1114.61 705.837 1114.76 706.783C1117.52 726.303 1118.36 745.932 1118.33 765.625C1118.33 766.73 1118.33 767.836 1118.33 768.975C1118.29 787.169 1117.24 804.645 1113.95 822.562C1113.77 823.601 1113.59 824.64 1113.4 825.711C1108.88 851.128 1101.67 876.544 1091.04 900.1C1089.83 902.839 1088.7 905.606 1087.58 908.379C1085 914.584 1082.06 920.547 1078.95 926.5C1078.39 927.576 1077.83 928.652 1077.25 929.761C1064.6 953.667 1049.34 976.389 1031.01 996.324C1028.5 999.059 1026.08 1001.87 1023.66 1004.69C1021.32 1007.25 1018.76 1009.55 1016.14 1011.82C1014.75 1013.52 1014.75 1013.52 1014.89 1015.82C1016.44 1019.83 1019.08 1022.54 1021.95 1025.69C1023.15 1027.03 1024.35 1028.38 1025.54 1029.72C1026.13 1030.38 1026.71 1031.04 1027.32 1031.71C1029.45 1034.13 1031.49 1036.62 1033.51 1039.12C1036.94 1043.36 1040.46 1047.5 1044.01 1051.62C1048.8 1057.17 1053.44 1062.8 1057.95 1068.56C1062.7 1066.62 1066.25 1062.94 1070 1059.55C1075.38 1054.84 1080.48 1053.05 1087.65 1053.25C1098.53 1054.71 1105.05 1064.55 1111.43 1072.47C1114.22 1075.89 1117.07 1079.23 1119.95 1082.56C1124.25 1087.55 1128.46 1092.6 1132.61 1097.72C1135.34 1101.04 1138.14 1104.3 1140.95 1107.56C1145.27 1112.58 1149.51 1117.65 1153.68 1122.79C1158.04 1128.11 1162.5 1133.33 1166.95 1138.56C1172.14 1144.67 1177.33 1150.78 1182.39 1157C1186.35 1161.86 1190.42 1166.62 1194.51 1171.37C1198.29 1175.76 1201.96 1180.22 1205.61 1184.72C1208.34 1188.04 1211.14 1191.3 1213.95 1194.56C1218.27 1199.58 1222.51 1204.65 1226.68 1209.79C1231.04 1215.11 1235.5 1220.33 1239.95 1225.56C1245.91 1232.58 1251.83 1239.62 1257.65 1246.76C1262.02 1252.08 1266.49 1257.32 1270.95 1262.56C1276.89 1269.55 1282.79 1276.57 1288.57 1283.69C1290.81 1286.39 1293.1 1289.05 1295.4 1291.71C1310.03 1308.59 1319.33 1321.99 1318.19 1345.02C1317.65 1350.72 1315.67 1355.53 1312.95 1360.56C1312.54 1361.35 1312.13 1362.15 1311.71 1362.96C1305.87 1372.83 1295.62 1380.16 1286.8 1387.24C1284.74 1388.92 1282.73 1390.61 1280.73 1392.36C1266.93 1404.36 1253.99 1411.68 1235.23 1410.95C1229.64 1410.56 1224.93 1409.12 1219.95 1406.56C1219.1 1406.14 1218.26 1405.71 1217.38 1405.28C1207.76 1400 1201.11 1391.97 1194.33 1383.52C1191.76 1380.32 1189.11 1377.19 1186.45 1374.06C1183.1 1370.12 1179.78 1366.15 1176.51 1362.12C1172.56 1357.26 1168.49 1352.5 1164.39 1347.75C1160.62 1343.36 1156.94 1338.9 1153.3 1334.41C1150.56 1331.09 1147.76 1327.82 1144.95 1324.56C1140.65 1319.57 1136.45 1314.52 1132.3 1309.41C1129.56 1306.09 1126.76 1302.82 1123.95 1299.56C1119.65 1294.57 1115.45 1289.52 1111.3 1284.41C1108.56 1281.09 1105.76 1277.82 1102.95 1274.56C1098.65 1269.57 1094.45 1264.52 1090.3 1259.41C1087.56 1256.09 1084.76 1252.82 1081.95 1249.56C1077.65 1244.57 1073.45 1239.52 1069.3 1234.41C1066.56 1231.09 1063.76 1227.82 1060.95 1224.56C1056.63 1219.55 1052.4 1214.47 1048.22 1209.33C1043.87 1204.02 1039.4 1198.8 1034.95 1193.56C1029.76 1187.45 1024.57 1181.35 1019.51 1175.12C1016.04 1170.85 1012.48 1166.67 1008.89 1162.5C1005.33 1158.36 1001.79 1154.22 998.327 1150C997.716 1149.26 997.105 1148.51 996.475 1147.75C992.305 1141.77 992.092 1135.64 992.952 1128.56C995.914 1119.93 1004.86 1113.75 1011.95 1108.56C1010.59 1104.52 1008.81 1102.02 1005.89 1098.94C1002.69 1095.48 999.603 1091.98 996.639 1088.31C993.147 1084 989.576 1079.77 985.952 1075.56C982.211 1071.21 978.489 1066.85 974.827 1062.44C974.123 1061.59 973.419 1060.74 972.694 1059.87C971.145 1057.82 969.997 1055.9 968.952 1053.56C967.948 1054.19 966.943 1054.82 965.909 1055.47C963.038 1057.27 960.166 1059.06 957.292 1060.85C954.777 1062.42 952.269 1064 949.768 1065.59C933.864 1075.6 917.298 1084.34 899.952 1091.56C899.016 1091.96 899.016 1091.96 898.062 1092.36C872.694 1103.12 846.121 1110.21 818.952 1114.56C818.052 1114.71 817.151 1114.85 816.224 1115C813.531 1115.43 810.836 1115.85 808.139 1116.25C807.365 1116.37 806.591 1116.49 805.793 1116.61C791.578 1118.64 777.197 1118.73 762.866 1118.69C760.19 1118.69 757.514 1118.69 754.838 1118.7C745.497 1118.7 736.255 1118.51 726.952 1117.56C725.845 1117.45 725.845 1117.45 724.716 1117.34C714.7 1116.28 704.815 1114.58 694.952 1112.56C693.63 1112.29 693.63 1112.29 692.281 1112.02C679.647 1109.43 667.221 1106.54 654.952 1102.56C654.016 1102.26 653.079 1101.97 652.115 1101.66C635.11 1096.19 618.971 1089.45 602.952 1081.56C601.74 1080.97 601.74 1080.97 600.504 1080.36C571.161 1065.77 571.161 1065.77 563.952 1058.56C562.584 1058.45 561.211 1058.41 559.838 1058.39C559.002 1058.36 558.167 1058.34 557.305 1058.31C555.54 1058.27 553.774 1058.24 552.008 1058.22C545.584 1058.01 545.584 1058.01 542.366 1055.74C540.325 1052.6 540.624 1050.23 540.952 1046.56C541.265 1045.22 541.594 1043.89 541.952 1042.56C541.106 1041.85 540.26 1041.14 539.389 1040.4C538.243 1039.43 537.098 1038.47 535.952 1037.5C535.399 1037.03 534.846 1036.57 534.276 1036.09C532.497 1034.58 530.724 1033.07 528.952 1031.56C528.077 1030.83 528.077 1030.83 527.184 1030.08C521.076 1024.86 515.41 1019.21 509.734 1013.53C508.026 1011.82 506.311 1010.13 504.594 1008.43C497.927 1001.8 491.764 994.972 485.952 987.562C484.815 986.161 483.677 984.759 482.538 983.359C460.178 955.37 441.252 923.078 429.268 889.23C428.246 886.384 427.158 883.61 426.006 880.816C423.829 875.408 422.125 869.913 420.514 864.312C420.213 863.269 419.913 862.225 419.603 861.15C412.213 835.094 406.811 808.24 406.784 781.082C406.78 779.911 406.777 778.741 406.774 777.535C406.769 775.065 406.766 772.595 406.766 770.125C406.764 766.43 406.746 762.736 406.727 759.041C406.678 738.939 407.5 718.975 411.264 699.187C411.59 697.424 411.59 697.424 411.923 695.625C413.591 686.862 415.689 678.322 418.288 669.793C419.015 667.349 419.688 664.894 420.354 662.433C423.521 650.811 427.332 639.682 431.952 628.562C432.452 627.333 432.452 627.333 432.963 626.079C447.423 590.627 467.544 558.208 492.952 529.562C494.161 528.167 495.369 526.771 496.577 525.375C497.699 524.102 498.825 522.831 499.952 521.562C500.732 520.678 501.512 519.794 502.315 518.883C506.646 514.033 510.989 509.478 515.967 505.297C518.183 503.36 520.213 501.297 522.264 499.187C527.179 494.231 532.463 489.863 537.952 485.562C538.565 485.077 539.179 484.593 539.812 484.093C567.741 462.092 598.704 443.347 631.952 430.562C632.919 430.19 633.886 429.817 634.882 429.433C648.72 424.158 662.506 419.805 676.952 416.562C678.151 416.279 679.349 415.995 680.585 415.703C683.702 414.967 686.825 414.259 689.952 413.562C691.077 413.306 692.202 413.049 693.362 412.785C715.22 407.92 737.288 406.183 759.639 406.312ZM671.952 428.562C670.587 428.97 670.587 428.97 669.194 429.386C650.98 434.892 633.105 441.28 615.952 449.562C614.804 450.11 613.657 450.658 612.475 451.223C595.145 459.619 578.526 469.23 562.952 480.562C561.949 481.289 561.949 481.289 560.925 482.031C539.259 497.811 518.072 515.844 500.952 536.562C500.509 537.091 500.067 537.62 499.611 538.164C481.301 560.078 465.11 583.57 452.938 609.484C451.817 611.847 450.659 614.191 449.499 616.535C441.391 633.041 435.143 649.688 430.502 667.475C429.984 669.44 429.441 671.398 428.897 673.355C427.867 677.08 426.896 680.815 425.952 684.562C425.788 685.195 425.625 685.827 425.456 686.478C415.105 727.319 414.591 773.08 420.952 814.562C421.069 815.371 421.187 816.179 421.308 817.012C423.08 829.018 425.95 840.813 428.952 852.562C429.274 853.839 429.274 853.839 429.603 855.14C433.2 869.162 438.194 882.446 443.788 895.786C444.784 898.161 445.76 900.543 446.729 902.93C460.085 935.25 480.614 965.632 503.952 991.562C504.444 992.111 504.936 992.659 505.443 993.224C515.069 1003.91 525.038 1014.18 535.952 1023.56C536.905 1024.38 536.905 1024.38 537.877 1025.22C548.715 1034.49 560.018 1042.77 571.952 1050.56C572.625 1051.01 573.299 1051.45 573.993 1051.9C589.824 1062.26 606.443 1071.49 623.942 1078.7C626.392 1079.75 628.801 1080.88 631.217 1082C636.717 1084.51 642.297 1086.61 648.014 1088.56C649.02 1088.91 650.025 1089.25 651.061 1089.61C678.358 1098.85 706.248 1104.12 734.952 1106.56C736.342 1106.69 737.733 1106.83 739.124 1106.96C814.292 1113.25 894.232 1092.03 955.952 1048.56C957.031 1047.82 958.11 1047.07 959.221 1046.31C972.19 1037.29 984.33 1027.25 995.952 1016.56C997.639 1015.06 999.326 1013.56 1001.01 1012.06C1008.49 1005.32 1015.43 998.225 1021.95 990.562C1022.74 989.664 1023.53 988.765 1024.34 987.84C1060.8 945.953 1087.23 893.833 1098.95 839.562C1099.3 838.015 1099.65 836.468 1099.99 834.922C1101.57 827.84 1102.83 820.728 1103.95 813.562C1104.09 812.69 1104.23 811.819 1104.38 810.92C1106.92 794.559 1107.22 778.334 1107.2 761.812C1107.2 760.775 1107.2 759.737 1107.2 758.668C1107.16 742.134 1106.57 725.936 1103.96 709.583C1103.64 707.565 1103.34 705.544 1103.03 703.523C1101.61 694.328 1099.48 685.523 1096.95 676.562C1096.39 674.463 1095.83 672.363 1095.28 670.262C1092.08 658.43 1088.54 646.959 1083.81 635.648C1082.95 633.558 1082.12 631.456 1081.31 629.348C1071.42 604.112 1057.1 580.261 1040.95 558.562C1040.52 557.977 1040.08 557.391 1039.64 556.787C1025.99 538.472 1010.66 520.415 993.272 505.547C991.502 504.033 989.75 502.498 988.006 500.953C966.435 481.943 942.41 466.796 916.952 453.562C916.19 453.165 915.429 452.767 914.644 452.357C867.783 428.193 814.985 417.292 762.514 417.375C761.347 417.376 761.347 417.376 760.157 417.378C730.589 417.454 700.402 420.016 671.952 428.562Z" fill="#B1BFBD"/>
<path d="M755.174 474.471C780.534 473.59 806.273 476.903 830.952 482.562C831.751 482.745 832.551 482.927 833.374 483.116C852.916 487.733 872.274 495.089 889.952 504.562C891.188 505.164 892.428 505.758 893.671 506.347C916.291 517.128 936.286 531.969 954.952 548.562C955.772 549.288 955.772 549.288 956.61 550.029C962.099 554.902 967.426 559.804 972.143 565.449C974.322 567.995 976.641 570.386 978.952 572.812C990.948 585.709 1001.06 600.395 1009.95 615.562C1010.32 616.19 1010.7 616.818 1011.08 617.464C1031.75 652.407 1045.47 691.998 1048.95 732.562C1049.04 733.563 1049.04 733.563 1049.13 734.583C1052.88 780.671 1047.61 828.915 1028.95 871.562C1028.52 872.613 1028.1 873.663 1027.65 874.746C1016.41 902.075 1000.46 927.412 980.952 949.562C980.328 950.285 979.704 951.009 979.061 951.754C977.374 953.705 975.667 955.636 973.952 957.562C973.171 958.448 972.389 959.333 971.585 960.246C967.29 965.056 962.991 969.627 958.049 973.773C955.608 975.856 953.292 978.053 950.952 980.25C944.02 986.56 936.566 992.106 928.952 997.562C928.365 997.985 927.778 998.407 927.173 998.843C904.633 1014.9 879.901 1026.26 853.952 1035.56C852.77 1035.99 851.588 1036.43 850.37 1036.87C825.106 1045.7 797.661 1049.92 770.952 1050.56C769.754 1050.6 768.557 1050.64 767.323 1050.68C695.046 1051.96 623.773 1025.55 570.401 976.789C568.816 975.348 567.216 973.925 565.596 972.523C534.623 945.541 509.558 907.794 494.952 869.562C494.616 868.695 494.28 867.827 493.934 866.933C485.997 846.265 480.002 825.384 477.3 803.373C477.033 801.214 476.742 799.058 476.441 796.904C474.918 785.607 474.593 774.452 474.639 763.062C474.641 762.144 474.642 761.226 474.644 760.281C474.704 739.723 476.664 719.907 481.406 699.87C481.966 697.502 482.502 695.128 483.038 692.754C493.61 647.122 516.353 605.425 547.839 570.894C549.726 568.812 551.562 566.697 553.389 564.562C560.052 556.95 567.236 550.111 575.151 543.816C576.957 542.363 578.733 540.873 580.471 539.34C611.78 511.882 651.028 494.116 690.952 483.562C691.691 483.365 692.431 483.168 693.193 482.965C704.248 480.06 715.382 478.329 726.709 476.859C728.672 476.599 730.631 476.31 732.589 476.015C740.076 475.007 747.631 474.781 755.174 474.471ZM578.323 555.41C576.207 557.331 574.059 559.202 571.889 561.062C564.681 567.355 558.093 574.233 551.952 581.562C551.498 582.097 551.045 582.631 550.577 583.182C537.889 598.181 527.135 614.198 517.952 631.562C517.612 632.203 517.272 632.845 516.922 633.505C501.118 663.593 491.088 695.83 486.952 729.562C486.869 730.196 486.787 730.83 486.702 731.483C485.988 737.306 485.762 743.059 485.714 748.922C485.704 749.896 485.694 750.871 485.684 751.875C485.512 773.414 485.586 794.384 489.952 815.562C490.161 816.58 490.37 817.597 490.585 818.645C498.863 857.373 514.572 893.594 537.952 925.562C538.377 926.144 538.802 926.727 539.24 927.326C544.341 934.25 549.786 940.765 555.643 947.07C557.671 949.259 559.634 951.485 561.577 953.75C567.528 960.579 574.055 966.704 580.952 972.562C581.801 973.301 582.651 974.04 583.526 974.801C596.341 985.762 610.226 995.351 624.952 1003.56C626.185 1004.25 626.185 1004.25 627.442 1004.95C687.306 1038.01 759.224 1049.17 825.952 1032.56C826.795 1032.36 827.637 1032.15 828.506 1031.94C873.291 1020.93 913.73 999.413 947.952 968.562C948.559 968.017 949.167 967.471 949.793 966.908C956.591 960.774 963.097 954.616 968.952 947.562C969.818 946.584 970.684 945.605 971.577 944.597C983.572 931.025 994.154 916.402 1002.95 900.562C1003.64 899.34 1003.64 899.34 1004.34 898.093C1027.39 856.654 1039.46 810.369 1039.26 763C1039.26 761.626 1039.26 761.626 1039.26 760.225C1039.22 745.473 1038.47 731.125 1035.95 716.562C1035.81 715.712 1035.67 714.862 1035.53 713.987C1026.87 662.07 1001.79 608.958 963.549 572.16C961.804 570.415 960.231 568.574 958.639 566.687C916.368 517.992 846.091 490.453 782.987 485.879C707.997 481.456 634.183 504.43 578.323 555.41Z" fill="#B2C0BE"/>
<path d="M829.829 617.243C848.872 632.866 858.135 654.208 860.655 678.457C862.236 697.39 859.02 717.379 847.264 732.75C846.171 734.031 845.067 735.302 843.952 736.563C843.354 737.357 842.755 738.151 842.139 738.969C829.784 753.619 809.226 763.137 790.952 767.563C789.962 767.563 788.972 767.563 787.952 767.563C787.963 768.558 787.975 769.553 787.987 770.579C788.052 778.749 787.939 786.9 787.577 795.063C787.546 795.874 787.515 796.685 787.483 797.521C787.032 806.684 785.638 817.352 779.276 824.426C773.947 829.207 769.612 829.891 762.545 829.766C757.632 829.381 753.803 828.389 750.229 824.864C744.3 817.449 742.525 809.752 741.827 800.5C741.749 799.572 741.671 798.644 741.591 797.687C741.437 795.827 741.289 793.966 741.147 792.104C740.982 789.958 740.797 787.813 740.608 785.668C739.988 777.999 739.767 770.317 739.639 762.625C739.609 761.654 739.58 760.682 739.549 759.681C739.489 752.25 740.999 747.148 745.741 741.391C752.565 735.525 759.715 733.202 768.264 730.75C780.243 727.134 792.476 721.089 798.827 709.875C799.552 708.447 800.262 707.009 800.952 705.563C801.305 704.938 801.658 704.312 802.022 703.668C806.231 694.136 804.943 679.141 802.049 669.344C798.493 660.334 793.646 653.931 784.952 649.563C784.164 649.152 783.376 648.74 782.565 648.317C772.456 643.843 758.575 643.691 748.186 647.524C739.306 651.653 733.681 656.258 728.092 664.207C717.919 678.62 717.919 678.62 709.952 681.563C699.135 682.53 689.429 682.351 680.42 675.692C674.971 671.131 672.492 667.858 671.327 660.75C671.592 649.421 680.632 637.502 687.952 629.563C688.751 628.672 689.55 627.781 690.374 626.864C701.77 614.776 715.244 606.795 730.952 601.563C731.619 601.338 732.286 601.114 732.974 600.883C764.014 591.013 804.034 596.955 829.829 617.243Z" fill="#B1BFBD"/>
<path d="M748.971 433.395C750.501 433.39 750.501 433.39 752.062 433.385C754.21 433.38 756.359 433.377 758.508 433.378C761.718 433.375 764.927 433.357 768.137 433.338C786.069 433.288 803.942 434.032 821.514 437.875C822.556 438.096 823.598 438.316 824.671 438.543C826.777 438.992 828.882 439.448 830.985 439.911C833.714 440.511 836.447 441.082 839.182 441.649C849.837 443.939 860.143 447.123 870.452 450.625C871.089 450.839 871.726 451.053 872.383 451.273C874.212 451.89 876.035 452.525 877.858 453.161C878.913 453.527 879.968 453.893 881.055 454.27C884.204 455.675 886.469 457.171 888.952 459.563C889.44 463.041 889.581 465.344 887.952 468.5C884.772 470.19 881.451 469.88 877.952 469.563C874.514 468.496 874.514 468.496 870.952 467C855.139 460.729 838.811 456.512 822.139 453.25C820.301 452.887 820.301 452.887 818.426 452.516C800.216 449.096 782.208 448.153 763.702 448.188C762.058 448.189 762.058 448.189 760.382 448.19C742.243 448.231 724.808 449.223 706.952 452.563C705.261 452.868 705.261 452.868 703.537 453.18C671.864 459.066 641.379 470.508 612.952 485.563C612.012 486.056 612.012 486.056 611.054 486.56C594.25 495.466 578.207 506.1 563.558 518.233C562.492 519.115 561.421 519.992 560.345 520.862C552.156 527.486 544.609 534.704 537.139 542.125C536.268 542.988 535.396 543.85 534.498 544.738C528.018 551.25 521.884 558.059 516.536 565.544C514.316 568.562 513.025 569.54 509.389 570.688C505.952 570.563 505.952 570.563 503.514 569.063C501.34 565.585 501.457 563.629 501.952 559.563C503.55 556.846 505.604 554.658 507.764 552.375C508.356 551.723 508.949 551.071 509.559 550.399C510.771 549.069 511.99 547.746 513.216 546.429C514.755 544.774 516.269 543.102 517.772 541.414C527.188 530.93 537.034 520.501 547.952 511.563C548.452 511.149 548.952 510.735 549.467 510.308C568.023 494.992 587.814 482.029 608.952 470.563C609.557 470.233 610.163 469.904 610.787 469.564C632.135 458.086 655.389 449.123 678.963 443.528C681.507 442.923 684.012 442.268 686.534 441.567C706.627 436.067 728.148 433.419 748.971 433.395Z" fill="#FEFEFE"/>
<path d="M1087.95 1092.56C1092 1094.57 1094.33 1096.94 1097.08 1100.5C1100.39 1104.68 1103.81 1108.67 1107.45 1112.56C1111.74 1117.17 1115.76 1121.94 1119.71 1126.85C1122.04 1129.67 1124.47 1132.37 1126.95 1135.06C1131.04 1139.51 1134.88 1144.11 1138.67 1148.81C1141.81 1152.6 1145.15 1156.19 1148.49 1159.82C1150.88 1162.48 1153.14 1165.21 1155.39 1168C1158.61 1171.99 1161.96 1175.81 1165.45 1179.56C1169.74 1184.17 1173.76 1188.94 1177.71 1193.85C1180.04 1196.67 1182.47 1199.37 1184.95 1202.06C1189.04 1206.51 1192.88 1211.11 1196.67 1215.81C1199.81 1219.6 1203.15 1223.19 1206.49 1226.82C1208.88 1229.48 1211.14 1232.21 1213.39 1235C1216.61 1238.99 1219.96 1242.81 1223.45 1246.56C1227.74 1251.17 1231.76 1255.94 1235.71 1260.85C1238.04 1263.67 1240.47 1266.37 1242.95 1269.06C1247.14 1273.61 1251.1 1278.3 1254.97 1283.13C1256.58 1285.11 1258.26 1286.95 1260.01 1288.81C1262.51 1292.36 1262.57 1294.31 1261.95 1298.56C1259.75 1303.16 1259.75 1303.16 1256.95 1304.56C1250.39 1305.34 1250.39 1305.34 1247.19 1303.61C1242.58 1299.87 1239.02 1295.11 1235.34 1290.49C1232.97 1287.58 1230.49 1284.82 1227.95 1282.06C1223.86 1277.62 1220.03 1273.02 1216.23 1268.31C1213.09 1264.52 1209.75 1260.93 1206.42 1257.31C1204.02 1254.64 1201.76 1251.91 1199.51 1249.12C1196.29 1245.13 1192.94 1241.32 1189.45 1237.56C1185.16 1232.95 1181.15 1228.18 1177.2 1223.28C1174.86 1220.46 1172.43 1217.76 1169.95 1215.06C1165.86 1210.62 1162.03 1206.02 1158.23 1201.31C1155.09 1197.52 1151.75 1193.93 1148.42 1190.31C1146.02 1187.64 1143.76 1184.91 1141.51 1182.12C1138.29 1178.13 1134.94 1174.32 1131.45 1170.56C1127.16 1165.95 1123.15 1161.18 1119.2 1156.28C1116.86 1153.46 1114.43 1150.76 1111.95 1148.06C1107.86 1143.62 1104.03 1139.02 1100.23 1134.31C1097.88 1131.48 1095.44 1128.77 1092.95 1126.06C1088.06 1120.74 1083.44 1115.23 1078.95 1109.56C1078.38 1108.88 1077.81 1108.2 1077.23 1107.49C1075.53 1104.92 1075.41 1102.58 1075.54 1099.53C1076.91 1092.93 1082.05 1091.72 1087.95 1092.56Z" fill="#FDFEFE"/>
<path d="M1012.95 1014.56C1013.49 1015.25 1014.04 1015.94 1014.6 1016.65C1017.21 1019.89 1019.92 1023.04 1022.64 1026.19C1026.3 1030.44 1029.92 1034.71 1033.45 1039.06C1037.38 1043.9 1041.42 1048.62 1045.48 1053.34C1050.07 1058.67 1054.53 1064.09 1058.95 1069.56C1055.41 1073.2 1051.72 1076.56 1047.83 1079.81C1047.26 1080.29 1046.69 1080.77 1046.1 1081.27C1041.73 1084.94 1037.3 1088.55 1032.87 1092.15C1030.63 1094 1028.42 1095.88 1026.23 1097.79C1025.59 1098.34 1024.95 1098.89 1024.3 1099.46C1023.04 1100.56 1021.79 1101.65 1020.55 1102.75C1016.17 1106.56 1016.17 1106.56 1013.95 1106.56C1013.62 1107.22 1013.29 1107.88 1012.95 1108.56C1012.19 1107.51 1011.43 1106.46 1010.64 1105.38C1006.47 1099.81 1001.93 1094.56 997.416 1089.28C987.388 1077.54 977.569 1065.64 967.952 1053.56C970.876 1050.49 973.957 1047.99 977.389 1045.5C990.001 1036.19 1001.95 1025.72 1012.95 1014.56Z" fill="#C6D0CF"/>
<path d="M786.264 865.101C792.64 870.197 797.85 877.35 798.952 885.562C799.66 895.554 800.004 904.082 793.952 912.562C793.265 913.542 793.265 913.542 792.565 914.542C787.505 921.044 779.988 925.707 771.952 927.562C762.68 928.608 752.388 927.364 744.639 921.874C736.502 914.989 730.802 907.848 729.538 897.011C729.152 887.071 730.78 878.957 736.936 870.996C750.319 856.593 769.778 854.129 786.264 865.101Z" fill="#B1BFBD"/>
<path d="M9.95482 185.168C10.9628 185.157 11.9708 185.146 13.0093 185.134C14.1091 185.137 15.209 185.14 16.3422 185.143C17.5051 185.134 18.6681 185.126 19.8663 185.117C23.7165 185.094 27.5664 185.093 31.4166 185.094C33.414 185.089 35.4114 185.083 37.4087 185.077C43.6887 185.058 49.9685 185.055 56.2484 185.062C62.7231 185.068 69.1972 185.045 75.6718 185.008C81.2346 184.978 86.7972 184.966 92.3601 184.97C95.6809 184.972 99.0011 184.965 102.322 184.942C106.026 184.92 109.728 184.93 113.432 184.947C115.079 184.928 115.079 184.928 116.759 184.907C124.175 184.989 124.175 184.989 128.133 187.91C129.952 190.563 129.952 190.563 130.577 193.625C129.952 196.563 129.952 196.563 128.138 198.713C123.319 201.511 118.821 201.128 113.34 201.096C112.166 201.105 110.991 201.113 109.781 201.122C106.568 201.141 103.356 201.142 100.143 201.133C97.4591 201.128 94.7751 201.135 92.091 201.142C85.7598 201.159 79.4288 201.156 73.0975 201.139C66.5677 201.122 60.0385 201.138 53.5087 201.17C47.8983 201.197 42.2882 201.204 36.6778 201.196C33.3286 201.191 29.9797 201.193 26.6306 201.214C22.8979 201.231 19.1666 201.217 15.434 201.194C14.3248 201.205 13.2156 201.217 12.0727 201.229C4.62602 201.136 4.62602 201.136 1.23414 198.25C-0.528756 194.556 -0.199698 192.449 0.951779 188.563C3.87785 185.743 5.94645 185.185 9.95482 185.168Z" fill="#B3C1BF"/>
<path d="M192.452 0C196.515 0.652984 197.441 1.40208 199.952 4.5625C200.458 6.94884 200.458 6.94884 200.466 9.64819C200.479 10.6744 200.492 11.7007 200.505 12.758C200.498 13.8782 200.492 14.9983 200.485 16.1523C200.494 17.3364 200.502 18.5205 200.511 19.7405C200.53 22.9844 200.531 26.2277 200.522 29.4717C200.517 32.1806 200.524 34.8893 200.531 37.5982C200.548 43.9884 200.545 50.3784 200.528 56.7686C200.511 63.3603 200.527 69.9514 200.559 76.5431C200.586 82.2044 200.593 87.8655 200.585 93.5268C200.58 96.9073 200.582 100.287 200.603 103.668C200.62 107.437 200.606 111.204 200.583 114.973C200.594 116.093 200.606 117.213 200.618 118.367C200.525 125.916 200.525 125.916 197.568 129.248C194.559 130.76 193.242 131.385 189.952 130.562C186.937 127.891 185.248 126.121 184.489 122.125C184.307 119.085 184.288 116.082 184.321 113.037C184.313 111.883 184.306 110.73 184.299 109.541C184.282 105.734 184.301 101.928 184.323 98.1211C184.322 95.4736 184.319 92.8262 184.315 90.1787C184.311 84.6331 184.327 79.0878 184.355 73.5422C184.387 67.1368 184.387 60.732 184.37 54.3266C184.354 48.1553 184.361 41.9842 184.377 35.8129C184.383 33.1906 184.382 30.5683 184.376 27.9461C184.37 24.2832 184.391 20.6215 184.418 16.9587C184.412 15.8734 184.405 14.7881 184.398 13.6698C184.456 9.17254 184.506 6.34272 186.766 2.38539C188.952 0.5625 188.952 0.5625 192.452 0Z" fill="#B3C1BF"/>
<path d="M63.9398 54.835C68.2767 56.4043 71.2778 60.0434 74.4573 63.2605C75.2776 64.0671 76.0979 64.8737 76.9431 65.7047C79.6477 68.3728 82.3296 71.0624 85.0103 73.7544C86.8828 75.6178 88.7561 77.4805 90.6302 79.3425C94.5541 83.2465 98.4646 87.1635 102.368 91.0877C106.876 95.6187 111.409 100.124 115.956 104.616C120.335 108.946 124.692 113.298 129.041 117.66C130.891 119.51 132.747 121.354 134.609 123.191C137.21 125.762 139.783 128.357 142.352 130.96C143.126 131.715 143.901 132.47 144.699 133.248C150.402 139.113 150.402 139.113 150.493 143.976C149.952 147.563 149.952 147.563 148.889 149.563C145.59 151.266 143.624 151.165 139.952 150.563C138.109 149.244 138.109 149.244 136.211 147.509C135.511 146.872 134.811 146.235 134.09 145.578C130.677 142.362 127.317 139.101 123.991 135.795C122.865 134.682 122.865 134.682 121.716 133.545C119.262 131.115 116.811 128.682 114.362 126.247C113.521 125.411 112.68 124.575 111.814 123.714C107.374 119.302 102.938 114.885 98.5051 110.467C94.8389 106.814 91.1655 103.168 87.4856 99.5291C83.0303 95.123 78.5874 90.7049 74.1531 86.2777C72.464 84.5953 70.7706 82.9172 69.073 81.2435C66.7057 78.9077 64.3545 76.5567 62.0066 74.2014C61.3028 73.514 60.5989 72.8265 59.8737 72.1183C56.9679 69.1745 55.1689 67.264 53.9287 63.2614C53.9576 59.8618 54.8937 58.2307 56.9517 55.563C59.4143 54.3317 61.2496 54.3869 63.9398 54.835Z" fill="#B2C0BE"/>
<path d="M488.014 586C490.952 586.562 490.952 586.562 493.389 588.125C494.952 590.562 494.952 590.562 494.803 593.75C493.827 598.122 492.189 601.209 489.889 605C489.068 606.404 488.251 607.811 487.436 609.219C487.022 609.934 486.607 610.65 486.18 611.387C481.583 619.528 477.541 628.032 473.815 636.602C472.877 638.733 471.9 640.84 470.889 642.938C470.589 643.564 470.288 644.19 469.979 644.836C468.829 646.769 467.681 648.123 465.952 649.562C462.372 650.096 460.612 649.969 457.514 648.062C455.659 645.095 455.832 643.408 456.343 640.016C457.627 634.842 460.044 630.108 462.327 625.312C462.861 624.175 463.395 623.038 463.946 621.866C467.417 614.566 471.036 607.356 474.889 600.25C475.325 599.44 475.76 598.629 476.209 597.794C482.175 587.072 482.175 587.072 488.014 586Z" fill="#FEFEFE"/>
<path d="M481.635 1042.09C482.487 1042.09 483.339 1042.08 484.217 1042.07C486.018 1042.06 487.82 1042.06 489.621 1042.06C492.376 1042.06 495.128 1042.02 497.883 1041.98C499.634 1041.97 501.385 1041.97 503.135 1041.97C503.958 1041.95 504.781 1041.94 505.629 1041.92C509.745 1041.97 511.355 1042.02 514.503 1044.87C516.491 1048.56 516.128 1050.59 514.952 1054.56C512.442 1057.3 510.918 1057.57 507.18 1057.98C505.668 1058.02 504.156 1058.03 502.643 1058.03C501.839 1058.04 501.036 1058.05 500.208 1058.05C498.511 1058.06 496.813 1058.07 495.116 1058.06C492.526 1058.06 489.938 1058.1 487.348 1058.15C485.696 1058.15 484.045 1058.16 482.393 1058.16C481.622 1058.17 480.851 1058.19 480.057 1058.21C476.046 1058.15 474.147 1057.71 470.924 1055.25C468.952 1052.56 468.952 1052.56 468.952 1048.94C471.039 1041.89 474.928 1042.1 481.635 1042.09Z" fill="#B3C0BE"/>
<path d="M338.733 1042.03C340.009 1042.03 340.009 1042.03 341.31 1042.02C343.106 1042.02 344.901 1042.02 346.696 1042.04C349.442 1042.06 352.186 1042.04 354.932 1042.02C356.678 1042.02 358.424 1042.02 360.17 1042.03C360.99 1042.02 361.81 1042.02 362.655 1042.01C366.441 1042.07 368.351 1042.12 371.473 1044.41C373.484 1047.34 373.46 1049.08 372.952 1052.56C371.172 1055.7 370.429 1056.4 366.952 1057.56C361.843 1057.84 356.735 1057.88 351.619 1057.91C349.928 1057.93 348.236 1057.96 346.545 1057.99C344.099 1058.05 341.656 1058.07 339.209 1058.09C338.457 1058.11 337.705 1058.13 336.93 1058.15C332.935 1058.14 331.15 1057.72 327.971 1055.22C325.952 1052.56 325.952 1052.56 325.389 1049.5C326.84 1041.92 332.228 1041.97 338.733 1042.03Z" fill="#B3C0BE"/>
<path d="M931.577 355.5C935.402 356.704 936.107 357.102 937.952 360.562C938.257 363.49 938.396 366.198 938.385 369.125C938.391 369.953 938.396 370.782 938.401 371.635C938.408 373.383 938.406 375.132 938.398 376.88C938.389 379.554 938.418 382.225 938.45 384.898C938.451 386.599 938.451 388.299 938.448 390C938.465 391.197 938.465 391.197 938.482 392.418C938.437 395.986 938.261 398.136 936.14 401.062C932.9 403.283 930.78 403.178 926.952 402.562C923.804 399.665 923.005 397.95 922.418 393.678C922.385 392.171 922.376 390.663 922.385 389.156C922.379 388.354 922.373 387.552 922.367 386.725C922.36 385.034 922.363 383.343 922.375 381.652C922.389 379.07 922.355 376.492 922.317 373.91C922.316 372.263 922.318 370.616 922.323 368.969C922.31 368.201 922.296 367.433 922.283 366.642C922.352 362.645 922.809 360.749 925.265 357.541C927.952 355.562 927.952 355.562 931.577 355.5Z" fill="#B2C0BE"/>
<path d="M191.577 791.5C195.396 792.702 196.099 793.116 197.952 796.562C198.268 799.406 198.42 802.027 198.42 804.871C198.428 805.675 198.436 806.479 198.443 807.307C198.454 809.004 198.457 810.701 198.453 812.398C198.452 814.988 198.493 817.576 198.537 820.166C198.543 821.818 198.545 823.469 198.545 825.121C198.57 826.278 198.57 826.278 198.595 827.457C198.544 831.467 198.102 833.365 195.641 836.586C192.952 838.562 192.952 838.562 189.327 838.625C185.507 837.423 184.804 837.009 182.952 833.562C182.635 830.719 182.484 828.098 182.483 825.254C182.475 824.45 182.468 823.646 182.46 822.818C182.449 821.121 182.446 819.424 182.451 817.727C182.452 815.137 182.41 812.549 182.366 809.959C182.36 808.307 182.358 806.656 182.358 805.004C182.341 804.233 182.325 803.462 182.308 802.668C182.359 798.658 182.801 796.76 185.262 793.539C187.952 791.562 187.952 791.562 191.577 791.5Z" fill="#B3C1BF"/>
<path d="M191.577 505.5C195.396 506.702 196.099 507.116 197.952 510.562C198.268 513.406 198.42 516.027 198.42 518.871C198.428 519.675 198.436 520.479 198.443 521.307C198.454 523.004 198.457 524.701 198.453 526.398C198.452 528.988 198.493 531.576 198.537 534.166C198.543 535.818 198.545 537.469 198.545 539.121C198.57 540.278 198.57 540.278 198.595 541.457C198.544 545.467 198.102 547.365 195.641 550.586C192.952 552.562 192.952 552.562 189.327 552.625C185.507 551.423 184.804 551.009 182.952 547.562C182.635 544.719 182.484 542.098 182.483 539.254C182.475 538.45 182.468 537.646 182.46 536.818C182.449 535.121 182.446 533.424 182.451 531.727C182.452 529.137 182.41 526.549 182.366 523.959C182.36 522.307 182.358 520.656 182.358 519.004C182.341 518.233 182.325 517.462 182.308 516.668C182.359 512.658 182.801 510.76 185.262 507.539C187.952 505.562 187.952 505.562 191.577 505.5Z" fill="#B3C0BE"/>
<path d="M267.514 1041.29C268.342 1041.31 269.171 1041.33 270.024 1041.35C271.773 1041.4 273.521 1041.46 275.269 1041.52C277.942 1041.62 280.613 1041.69 283.287 1041.75C284.988 1041.8 286.689 1041.85 288.389 1041.91C289.187 1041.93 289.985 1041.95 290.807 1041.97C294.039 1042.11 296.557 1042.36 299.452 1043.86C301.522 1046.21 301.481 1048.48 301.58 1051.53C300.595 1054.72 298.695 1055.75 295.952 1057.56C292.757 1058.05 292.757 1058.05 289.182 1058.02C287.881 1058.02 286.579 1058.02 285.239 1058.01C284.565 1058 283.891 1057.99 283.196 1057.97C281.155 1057.94 279.116 1057.93 277.075 1057.93C261.715 1057.8 261.715 1057.8 255.952 1054.37C254.279 1051.34 254.537 1048.94 254.952 1045.56C258.229 1040.72 262.147 1041.06 267.514 1041.29Z" fill="#B3C0BE"/>
<path d="M191.577 934.562C194.899 935.547 195.897 935.941 197.952 938.562C198.274 941.528 198.42 944.278 198.42 947.246C198.428 948.098 198.436 948.95 198.443 949.828C198.454 951.629 198.457 953.43 198.453 955.232C198.452 957.987 198.493 960.739 198.538 963.494C198.543 965.245 198.545 966.995 198.545 968.746C198.57 969.981 198.57 969.981 198.595 971.24C198.545 975.394 198.526 976.957 195.571 980.074C192.563 981.783 191.325 982.406 187.952 981.562C183.947 977.701 182.386 975.29 182.257 969.522C182.267 968.781 182.277 968.041 182.288 967.277C182.283 966.499 182.278 965.72 182.273 964.918C182.27 963.28 182.279 961.642 182.3 960.004C182.327 957.503 182.3 955.007 182.268 952.506C182.271 950.909 182.278 949.312 182.288 947.715C182.277 946.972 182.267 946.229 182.257 945.464C182.345 941.53 182.842 939.705 185.267 936.553C187.952 934.562 187.952 934.562 191.577 934.562Z" fill="#B3C0BE"/>
<path d="M661.104 178.899C661.882 178.894 662.66 178.889 663.461 178.884C665.101 178.881 666.741 178.89 668.38 178.911C670.879 178.938 673.373 178.911 675.872 178.879C677.47 178.883 679.068 178.889 680.667 178.899C681.407 178.889 682.148 178.879 682.912 178.868C686.794 178.955 689.423 179.534 692.466 181.878C694.952 184.563 694.952 184.563 695.014 188.188C693.98 191.475 693.558 192.517 690.952 194.563C687.986 194.874 685.235 195.007 682.268 194.996C680.99 195.004 680.99 195.004 679.687 195.012C677.885 195.019 676.084 195.017 674.283 195.009C671.528 195 668.775 195.029 666.02 195.061C664.27 195.063 662.519 195.062 660.768 195.059C659.945 195.07 659.122 195.081 658.274 195.093C654.477 195.047 652.565 195.013 649.436 192.715C647.374 189.726 647.298 188.123 647.952 184.563C651.781 179.554 655.073 178.817 661.104 178.899Z" fill="#B3C1BF"/>
<path d="M375.358 178.899C376.561 178.892 376.561 178.892 377.789 178.884C379.48 178.881 381.171 178.89 382.862 178.911C385.444 178.938 388.022 178.911 390.604 178.879C392.251 178.883 393.898 178.889 395.545 178.899C396.313 178.889 397.081 178.879 397.872 178.868C401.882 178.955 403.753 179.407 406.942 181.913C408.952 184.563 408.952 184.563 409.514 187.625C408.8 191.357 408.007 192.312 404.952 194.563C402.027 195.167 399.149 195.147 396.17 195.129C395.32 195.136 394.469 195.142 393.593 195.148C391.798 195.155 390.002 195.152 388.207 195.139C385.46 195.125 382.717 195.16 379.971 195.198C378.225 195.199 376.479 195.197 374.733 195.192C373.913 195.205 373.093 195.218 372.248 195.232C368.105 195.164 366.548 195.128 363.438 192.18C361.74 189.19 361.195 187.924 361.952 184.563C365.858 179.48 369.237 178.818 375.358 178.899Z" fill="#B3C1BF"/>
<path d="M590.139 179.031C590.919 179.028 591.699 179.024 592.503 179.02C594.147 179.017 595.791 179.024 597.435 179.041C599.944 179.063 602.45 179.041 604.959 179.016C606.561 179.018 608.162 179.024 609.764 179.031C610.51 179.023 611.256 179.015 612.024 179.007C615.65 179.072 617.808 179.475 620.928 181.377C622.951 183.563 622.951 183.563 623.514 187.063C622.951 190.563 622.951 190.563 621.467 192.748C617.779 195.408 614.578 195.138 610.135 195.094C608.856 195.1 608.856 195.1 607.551 195.105C605.751 195.108 603.951 195.101 602.152 195.084C599.395 195.063 596.64 195.084 593.883 195.109C592.134 195.107 590.384 195.102 588.635 195.094C587.398 195.106 587.398 195.106 586.135 195.118C580.464 195.025 580.464 195.025 577.94 192.748C576.451 189.456 576.443 187.123 576.951 183.563C580.896 179.294 584.604 178.971 590.139 179.031Z" fill="#B3C0BF"/>
<path d="M518.358 178.899C519.562 178.892 519.562 178.892 520.789 178.884C522.48 178.881 524.172 178.89 525.863 178.911C528.445 178.938 531.022 178.911 533.604 178.879C535.251 178.883 536.899 178.889 538.546 178.899C539.313 178.889 540.081 178.879 540.872 178.868C544.865 178.955 546.772 179.425 549.977 181.878C551.952 184.563 551.952 184.563 551.952 188.188C550.967 191.511 550.573 192.509 547.952 194.563C544.987 194.886 542.236 195.031 539.268 195.032C537.99 195.043 537.99 195.043 536.687 195.055C534.885 195.066 533.084 195.068 531.283 195.064C528.528 195.063 525.775 195.105 523.02 195.149C521.27 195.154 519.519 195.157 517.768 195.157C516.945 195.173 516.122 195.189 515.274 195.206C511.12 195.156 509.557 195.135 506.436 192.182C504.741 189.191 504.196 187.923 504.952 184.563C508.859 179.48 512.237 178.818 518.358 178.899Z" fill="#B3C1BF"/>
<path d="M447.139 179.031C447.919 179.028 448.699 179.024 449.503 179.02C451.147 179.017 452.791 179.024 454.435 179.041C456.944 179.063 459.45 179.041 461.959 179.016C463.561 179.018 465.162 179.024 466.764 179.031C467.51 179.023 468.256 179.015 469.024 179.007C472.65 179.072 474.808 179.475 477.928 181.377C479.951 183.563 479.951 183.563 480.514 187.063C479.951 190.563 479.951 190.563 478.467 192.748C474.779 195.408 471.578 195.138 467.135 195.094C465.856 195.1 465.856 195.1 464.551 195.105C462.751 195.108 460.951 195.101 459.152 195.084C456.395 195.063 453.64 195.084 450.883 195.109C449.134 195.107 447.384 195.102 445.635 195.094C444.398 195.106 444.398 195.106 443.135 195.118C437.464 195.025 437.464 195.025 434.94 192.748C433.451 189.456 433.443 187.123 433.951 183.563C437.896 179.294 441.604 178.971 447.139 179.031Z" fill="#B3C0BF"/>
<path d="M193.952 363.563C196.137 365.059 196.137 365.059 197.952 367.563C198.35 370.544 198.513 373.147 198.483 376.125C198.487 376.954 198.491 377.782 198.495 378.635C198.497 380.384 198.49 382.132 198.473 383.88C198.452 386.554 198.473 389.225 198.499 391.899C198.496 393.599 198.491 395.3 198.483 397C198.491 397.798 198.499 398.596 198.508 399.419C198.447 402.983 198.258 405.14 196.137 408.063C192.9 410.285 190.779 410.178 186.952 409.563C183.79 406.658 183.004 404.953 182.434 400.662C182.408 399.149 182.405 397.635 182.421 396.121C182.417 395.317 182.413 394.512 182.409 393.683C182.406 391.988 182.414 390.292 182.43 388.597C182.452 386.005 182.43 383.415 182.405 380.823C182.408 379.172 182.413 377.522 182.421 375.871C182.408 374.712 182.408 374.712 182.396 373.529C182.457 370.019 182.672 367.947 184.766 365.075C187.975 362.855 190.146 363.019 193.952 363.563Z" fill="#B2C0BE"/>
<path d="M733.139 179.031C733.919 179.028 734.699 179.024 735.503 179.02C737.147 179.017 738.791 179.024 740.435 179.041C742.944 179.063 745.45 179.041 747.959 179.016C749.561 179.018 751.162 179.024 752.764 179.031C753.51 179.023 754.256 179.015 755.024 179.007C758.65 179.072 760.808 179.475 763.928 181.377C765.951 183.563 765.951 183.563 766.514 187.063C765.951 190.563 765.951 190.563 764.467 192.748C760.779 195.408 757.578 195.138 753.135 195.094C751.856 195.1 751.856 195.1 750.551 195.105C748.751 195.108 746.951 195.101 745.152 195.084C742.395 195.063 739.64 195.084 736.883 195.109C735.134 195.107 733.384 195.102 731.635 195.094C730.398 195.106 730.398 195.106 729.135 195.118C723.464 195.025 723.464 195.025 720.94 192.748C719.451 189.456 719.443 187.123 719.951 183.563C723.896 179.294 727.604 178.971 733.139 179.031Z" fill="#B3C1BF"/>
<path d="M193.952 434.563C196.137 436.059 196.137 436.059 197.952 438.563C198.35 441.543 198.513 444.147 198.483 447.125C198.487 447.954 198.491 448.782 198.495 449.635C198.497 451.384 198.49 453.132 198.473 454.88C198.452 457.554 198.473 460.225 198.499 462.899C198.496 464.599 198.491 466.3 198.483 468C198.491 468.798 198.499 469.596 198.508 470.418C198.447 473.984 198.257 476.142 196.137 479.067C192.926 481.265 190.749 481.105 186.952 480.563C184.766 479.067 184.766 479.067 182.952 476.563C182.554 473.582 182.39 470.979 182.421 468C182.417 467.172 182.413 466.344 182.409 465.49C182.406 463.742 182.414 461.994 182.43 460.245C182.452 457.572 182.43 454.9 182.405 452.227C182.408 450.526 182.413 448.826 182.421 447.125C182.408 445.928 182.408 445.928 182.396 444.707C182.456 441.142 182.647 438.984 184.766 436.059C187.978 433.861 190.155 434.02 193.952 434.563Z" fill="#B2C0BE"/>
<path d="M193.952 863.563C196.137 865.059 196.137 865.059 197.952 867.563C198.35 870.543 198.513 873.147 198.483 876.125C198.487 876.954 198.491 877.782 198.495 878.635C198.497 880.384 198.49 882.132 198.473 883.88C198.452 886.554 198.473 889.225 198.499 891.899C198.496 893.599 198.491 895.3 198.483 897C198.491 897.798 198.499 898.596 198.508 899.418C198.447 902.984 198.257 905.142 196.137 908.067C192.926 910.265 190.749 910.105 186.952 909.563C184.766 908.067 184.766 908.067 182.952 905.563C182.554 902.582 182.39 899.979 182.421 897C182.417 896.172 182.413 895.344 182.409 894.49C182.406 892.742 182.414 890.994 182.43 889.245C182.452 886.572 182.43 883.9 182.405 881.227C182.408 879.526 182.413 877.826 182.421 876.125C182.408 874.928 182.408 874.928 182.396 873.707C182.456 870.142 182.647 867.984 184.766 865.059C187.978 862.861 190.155 863.02 193.952 863.563Z" fill="#B2C0BE"/>
<path d="M194.952 649.563C197.738 652.017 197.957 653.612 198.371 657.334C198.405 658.846 198.42 660.359 198.42 661.872C198.428 662.675 198.435 663.479 198.443 664.307C198.454 666.004 198.457 667.701 198.452 669.398C198.452 671.989 198.493 674.576 198.537 677.166C198.543 678.818 198.545 680.47 198.545 682.122C198.57 683.278 198.57 683.278 198.595 684.458C198.544 688.468 198.102 690.366 195.641 693.587C192.952 695.563 192.952 695.563 189.327 695.625C185.507 694.423 184.801 694.012 182.952 690.563C182.647 687.707 182.507 685.075 182.518 682.219C182.513 681.413 182.507 680.607 182.502 679.776C182.496 678.075 182.497 676.374 182.505 674.673C182.514 672.072 182.485 669.473 182.453 666.872C182.452 665.217 182.452 663.562 182.455 661.907C182.444 661.131 182.433 660.354 182.421 659.555C182.468 655.971 182.647 653.961 184.855 651.075C188.414 648.508 190.646 649.016 194.952 649.563Z" fill="#B3C0BE"/>
<path d="M193.952 577.563C196.137 579.059 196.137 579.059 197.952 581.563C198.35 584.543 198.513 587.147 198.483 590.125C198.487 590.954 198.491 591.782 198.495 592.635C198.497 594.384 198.49 596.132 198.473 597.88C198.452 600.554 198.473 603.225 198.499 605.899C198.496 607.599 198.491 609.3 198.483 611C198.491 611.798 198.499 612.596 198.508 613.418C198.447 616.984 198.257 619.142 196.137 622.067C192.926 624.265 190.749 624.105 186.952 623.563C184.766 622.067 184.766 622.067 182.952 619.563C182.554 616.582 182.39 613.979 182.421 611C182.417 610.172 182.413 609.344 182.409 608.49C182.406 606.742 182.414 604.994 182.43 603.245C182.452 600.572 182.43 597.9 182.405 595.227C182.408 593.526 182.413 591.826 182.421 590.125C182.408 588.928 182.408 588.928 182.396 587.707C182.456 584.142 182.647 581.984 184.766 579.059C187.978 576.861 190.155 577.02 193.952 577.563Z" fill="#B2C0BE"/>
<path d="M191.014 291C194.738 291.713 195.701 292.52 197.952 295.562C198.35 298.543 198.513 301.147 198.483 304.125C198.487 304.953 198.491 305.782 198.495 306.635C198.497 308.383 198.49 310.132 198.473 311.88C198.452 314.554 198.473 317.225 198.499 319.898C198.496 321.599 198.491 323.299 198.483 325C198.491 325.798 198.499 326.596 198.508 327.418C198.447 330.984 198.257 333.142 196.137 336.066C192.926 338.265 190.749 338.105 186.952 337.562C184.768 336.051 184.768 336.051 182.952 333.562C182.542 330.664 182.367 328.152 182.385 325.254C182.379 324.45 182.373 323.646 182.367 322.818C182.36 321.121 182.363 319.424 182.375 317.727C182.389 315.137 182.355 312.549 182.317 309.959C182.316 308.307 182.318 306.656 182.323 305.004C182.31 304.233 182.296 303.462 182.283 302.668C182.352 298.645 182.788 296.772 185.3 293.57C187.952 291.562 187.952 291.562 191.014 291Z" fill="#B2C0BE"/>
<path d="M304.725 179.325C305.486 179.316 306.247 179.308 307.03 179.3C308.639 179.286 310.248 179.276 311.857 179.268C314.311 179.25 316.764 179.207 319.217 179.162C320.782 179.152 322.348 179.144 323.913 179.137C324.643 179.12 325.373 179.102 326.126 179.084C329.733 179.099 331.814 179.479 334.919 181.371C336.952 183.563 336.952 183.563 337.514 187.063C336.849 191.2 336.305 192.129 332.952 194.563C329.971 194.961 327.368 195.124 324.389 195.094C323.147 195.1 323.147 195.1 321.879 195.106C320.131 195.108 318.383 195.101 316.634 195.084C313.961 195.063 311.289 195.084 308.616 195.11C306.915 195.107 305.215 195.102 303.514 195.094C302.317 195.106 302.317 195.106 301.096 195.119C297.532 195.058 295.371 194.865 292.444 192.752C290.278 189.575 290.474 187.314 290.952 183.563C294.268 178.825 299.463 179.377 304.725 179.325Z" fill="#B3C1BF"/>
<path d="M410.514 1042.03C411.757 1042.03 411.757 1042.03 413.024 1042.02C414.772 1042.02 416.521 1042.02 418.269 1042.04C420.943 1042.06 423.614 1042.04 426.288 1042.02C427.988 1042.02 429.689 1042.02 431.389 1042.03C432.586 1042.02 432.586 1042.02 433.807 1042.01C437.372 1042.07 439.529 1042.26 442.452 1044.38C444.674 1047.61 444.567 1049.74 443.952 1053.56C441.047 1056.72 439.341 1057.51 435.051 1058.08C433.538 1058.11 432.024 1058.11 430.51 1058.09C429.705 1058.1 428.901 1058.1 428.072 1058.11C426.376 1058.11 424.681 1058.1 422.986 1058.08C420.393 1058.06 417.804 1058.08 415.211 1058.11C413.561 1058.11 411.911 1058.1 410.26 1058.09C409.487 1058.1 408.714 1058.11 407.918 1058.12C404.407 1058.06 402.335 1057.84 399.464 1055.75C397.244 1052.54 397.408 1050.37 397.952 1046.56C401.225 1041.78 405.162 1041.98 410.514 1042.03Z" fill="#B2C0BE"/>
<path d="M206.952 1003.56C210.447 1006.74 213.358 1010.23 216.264 1013.94C220.809 1019.57 225.826 1024.06 231.452 1028.56C232.952 1030.56 232.952 1030.56 233.514 1034.06C232.952 1037.56 232.952 1037.56 230.764 1040C227.642 1041.73 226.447 1042 222.952 1041.56C212.878 1035.35 202.977 1024.62 196.952 1014.56C196.397 1010.54 196.308 1008.53 198.577 1005.13C201.709 1003.06 203.267 1002.89 206.952 1003.56Z" fill="#B2C0BE"/>
<path d="M190.452 720C194.589 720.665 195.518 721.209 197.952 724.562C198.35 727.543 198.513 730.147 198.483 733.125C198.487 733.953 198.491 734.782 198.495 735.635C198.497 737.383 198.49 739.132 198.473 740.88C198.452 743.554 198.473 746.225 198.499 748.898C198.496 750.599 198.491 752.299 198.483 754C198.491 754.798 198.499 755.596 198.508 756.418C198.447 759.982 198.258 762.14 196.137 765.062C192.9 767.285 190.779 767.178 186.952 766.562C183.848 763.689 183.01 761.992 182.434 757.77C182.408 756.305 182.405 754.84 182.421 753.375C182.417 752.595 182.413 751.815 182.409 751.011C182.406 749.367 182.414 747.723 182.43 746.079C182.452 743.57 182.43 741.064 182.405 738.555C182.408 736.953 182.413 735.352 182.421 733.75C182.412 733.004 182.404 732.258 182.396 731.49C182.461 727.864 182.864 725.706 184.766 722.586C186.952 720.562 186.952 720.562 190.452 720Z" fill="#B2C0BE"/>
<path d="M844.702 244.875C848.151 245.605 849 246.223 851.53 248.512C852.582 249.463 852.582 249.463 853.656 250.434C854.413 251.137 855.171 251.839 855.952 252.562C856.753 253.303 857.555 254.043 858.38 254.806C860.932 257.197 863.444 259.625 865.952 262.062C866.822 262.878 867.692 263.694 868.588 264.535C874.791 270.601 874.791 270.601 875.612 275.504C874.952 278.562 874.952 278.562 873.389 281C869.982 283.184 867.952 283.029 863.952 282.562C861.575 280.812 859.821 279.28 857.834 277.164C857.292 276.614 856.749 276.064 856.19 275.497C854.469 273.743 852.773 271.966 851.077 270.188C849.914 268.998 848.75 267.811 847.584 266.625C838.099 256.915 838.099 256.915 837.639 252.688C837.952 249.562 837.952 249.562 839.577 247.188C841.952 245.562 841.952 245.562 844.702 244.875Z" fill="#B2C0BE"/>
<path d="M260.952 181.563C264.357 184.079 265.776 185.467 266.452 189.688C265.89 192.915 265.405 193.54 262.952 195.563C261.165 196.343 261.165 196.343 259.178 196.922C258.442 197.147 257.706 197.373 256.947 197.605C256.165 197.839 255.383 198.072 254.577 198.313C247.35 200.557 241.268 203.291 234.846 207.34C231.132 208.909 228.827 208.473 224.952 207.563C223.014 206.375 223.014 206.375 221.952 204.563C221.452 201.688 221.452 201.688 221.952 198.563C225.595 194.242 229.518 191.898 234.514 189.5C235.217 189.157 235.919 188.814 236.643 188.461C252.483 180.888 252.483 180.888 260.952 181.563Z" fill="#B3C0BE"/>
<path d="M895.702 295.875C900.776 296.948 903.331 299.964 906.952 303.562C907.538 304.136 908.124 304.71 908.728 305.302C912.057 308.561 915.371 311.836 918.659 315.137C919.22 315.7 919.782 316.263 920.361 316.843C925.381 322.271 925.381 322.271 925.389 326.625C924.952 330.562 924.952 330.562 923.389 332.562C919.972 333.964 917.628 333.978 913.952 333.562C911.717 331.692 910.132 330.097 908.327 327.875C907.302 326.678 906.273 325.484 905.241 324.293C904.71 323.676 904.179 323.059 903.632 322.423C901.926 320.535 900.145 318.79 898.288 317.051C897.689 316.486 897.09 315.922 896.474 315.341C895.316 314.261 894.147 313.194 892.965 312.142C890.031 309.359 888.994 307.901 888.491 303.832C888.952 300.562 888.952 300.562 890.577 298.125C892.952 296.562 892.952 296.562 895.702 295.875Z" fill="#B2C0BE"/>
<path d="M205.952 222.563C207.889 223.563 207.889 223.563 208.952 225.563C209.397 231.554 208.516 235.387 205.639 240.688C202.416 246.994 200.842 252.589 199.85 259.637C198.709 263.352 197.199 264.518 193.952 266.563C190.889 267.125 190.889 267.125 187.952 266.563C185.514 264.625 185.514 264.625 183.952 261.563C183.952 248.704 189.328 235.444 195.952 224.563C199.647 222.1 201.585 222.173 205.952 222.563Z" fill="#B3C0BE"/>
<path d="M797.952 195.563C799.74 196.841 799.74 196.841 801.596 198.543C802.641 199.496 802.641 199.496 803.707 200.468C804.448 201.159 805.188 201.85 805.952 202.563C806.721 203.267 807.491 203.971 808.284 204.696C810.704 206.934 813.08 209.211 815.452 211.5C816.274 212.26 817.097 213.02 817.944 213.803C824.476 220.156 824.476 220.156 824.584 224.973C823.952 228.563 823.952 228.563 822.327 231.063C819.183 233.048 817.637 233.053 813.952 232.563C811.592 230.824 809.715 229.216 807.678 227.156C807.11 226.598 806.541 226.04 805.955 225.465C804.759 224.282 803.571 223.091 802.391 221.894C800.585 220.071 798.746 218.289 796.901 216.508C795.741 215.351 794.583 214.192 793.428 213.031C792.603 212.24 792.603 212.24 791.762 211.433C788.89 208.454 787.612 206.496 787.543 202.283C787.952 198.563 787.952 198.563 789.014 196.563C792.313 194.86 794.279 194.96 797.952 195.563Z" fill="#B2C0BE"/>
</svg>
